{"title":"Arbitrage 2012 HDRiP AC3-2 0 XviD-AXED","uid":7636432,"size":1469421626,"categoryP":"video","categoryS":"movies","magnet":"?xt=urn:btih:bd4a6d2f867e371fd029f54163fe92f8c0824e02&amp;dn=Arbitrage+2012+HDRiP+AC3-2+0+XviD-AXED&amp;tr=udp%3A%2F%2Ftracker.openbittorrent.com%3A80&amp;tr=udp%3A%2F%2Fopen.demonii.com%3A1337&amp;tr=udp%3A%2F%2Ftracker.coppersurfer.tk%3A6969&amp;tr=udp%3A%2F%2Fexodus.desync.com%3A6969","seeders":12,"leechers":7,"uploader":"Hackulus","files":-1,"time":1347656876,"description":"IMDB: &lt;a href=&quot;\nhttp://www.imdb.com/title/tt1764183/&quot; rel=&quot;nofollow&quot; target=&quot;_NEW&quot;&gt;\nhttp://www.imdb.com/title/tt1764183/&lt;/a&gt;\n\nPLOT INFO:\nA troubled hedge fund magnate desperate to complete the sale of his trading empire makes an error that forces him to turn to an unlikely person for help.\n\nMEDIAINFO:\nGeneral\nComplete name                            : Arbitrage.2012.HDRiP.AC3-2.0.XviD-AXED.avi\nFormat                                   : AVI\nFormat/Info                              : Audio Video Interleave\nFile size                                : 1.35 GiB\nDuration                                 : 1h 47mn\nOverall bit rate                         : 1 803 Kbps\n\nVideo\nID                                       : 0\nFormat                                   : MPEG-4 Visual\nFormat profile                           : Advanced Simple@L5\nFormat settings, BVOP                    : 2\nFormat settings, QPel                    : No\nFormat settings, GMC                     : No warppoints\nFormat settings, Matrix                  : Default (H.263)\nMuxing mode                              : Packed bitstream\nCodec ID                                 : XVID\nCodec ID/Hint                            : XviD\nDuration                                 : 1h 47mn\nBit rate                                 : 1 603 Kbps\nWidth                                    : 720 pixels\nHeight                                   : 384 pixels\nDisplay aspect ratio                     : 1.85:1\nFrame rate                               : 23.976 fps\nColor space                              : YUV\nChroma subsampling                       : 4:2:0\nBit depth                                : 8 bits\nScan type                                : Progressive\nCompression mode                         : Lossy\nBits/(Pixel*Frame)                       : 0.242\nStream size                              : 1.20 GiB (89%)\nWriting library                          : XviD 64\n\nAudio\nID                                       : 1\nFormat                                   : AC-3\nFormat/Info                              : Audio Coding 3\nMode extension                           : CM (complete main)\nFormat settings, Endianness              : Big\nCodec ID                                 : 2000\nDuration                                 : 1h 47mn\nBit rate mode                            : Constant\nBit rate                                 : 192 Kbps\nChannel(s)                               : 2 channels\nChannel positions                        : Front: L R\nSampling rate                            : 48.0 KHz\nBit depth                                : 16 bits\nCompression mode                         : Lossy\nStream size                              : 148 MiB (11%)\nAlignment                                : Aligned on interleaves\nInterleave, duration                     : 64 ms (1.53 video frames)\nInterleave, preload duration             : 192 ms\nTitle                                    : arbitrage\n\n\n\n\nSOURCE:\n720p wmv Digital VOD Rental\n\n\nNOTES:\nThe new thriller starring Richard Gere, Susan Sarandon &amp; Tim Roth that hits theatres today!\n\nAXED! - The only name to trust for VOD/HDRiP!","torrent":{"xt":"urn:btih:bd4a6d2f867e371fd029f54163fe92f8c0824e02","amp;dn":"Arbitrage+2012+HDRiP+AC3-2+0+XviD-AXED","amp;tr":["udp%3A%2F%2Ftracker.openbittorrent.com%3A80","udp%3A%2F%2Fopen.demonii.com%3A1337","udp%3A%2F%2Ftracker.coppersurfer.tk%3A6969","udp%3A%2F%2Fexodus.desync.com%3A6969"],"infoHash":"bd4a6d2f867e371fd029f54163fe92f8c0824e02","infoHashBuffer":{"type":"Buffer","data":[189,74,109,47,134,126,55,31,208,41,245,65,99,254,146,248,192,130,78,2]},"announce":[],"urlList":[]}}